<mxfile host="Electron" agent="Mozilla/5.0 (Windows NT 10.0; Win64; x64) AppleWebKit/537.36 (KHTML, like Gecko) draw.io/24.7.17 Chrome/128.0.6613.36 Electron/32.0.1 Safari/537.36" version="24.7.17">
  <diagram name="Страница — 1" id="ylVTUwtG-8opVFYqhawL">
    <mxGraphModel dx="1036" dy="614" grid="1" gridSize="10" guides="1" tooltips="1" connect="1" arrows="1" fold="1" page="1" pageScale="1" pageWidth="827" pageHeight="1169" math="0" shadow="0">
      <root>
        <mxCell id="0" />
        <mxCell id="1" parent="0" />
        <mxCell id="-n1pDU2zMvlfpEpFHyzS-1" value="Диаграмма классов&#xa;&#xa;Класс Animal является базовым классом, а классы Pets и PackAnimals наследуются от него. Каждый подкласс содержит конкретные типы животных, такие как Dog, Cat, Hamster для класса Pets и Horse, Camel, Donkey для класса PackAnimals" style="text;whiteSpace=wrap;html=1;" vertex="1" parent="1">
          <mxGeometry x="100" y="60" width="560" height="100" as="geometry" />
        </mxCell>
        <mxCell id="-n1pDU2zMvlfpEpFHyzS-17" style="edgeStyle=orthogonalEdgeStyle;rounded=0;orthogonalLoop=1;jettySize=auto;html=1;exitX=1;exitY=0.75;exitDx=0;exitDy=0;" edge="1" parent="1" source="-n1pDU2zMvlfpEpFHyzS-2">
          <mxGeometry relative="1" as="geometry">
            <mxPoint x="520" y="240" as="targetPoint" />
            <Array as="points">
              <mxPoint x="521" y="205" />
            </Array>
          </mxGeometry>
        </mxCell>
        <mxCell id="-n1pDU2zMvlfpEpFHyzS-2" value="Animal" style="rounded=0;whiteSpace=wrap;html=1;" vertex="1" parent="1">
          <mxGeometry x="320" y="160" width="120" height="60" as="geometry" />
        </mxCell>
        <mxCell id="-n1pDU2zMvlfpEpFHyzS-18" style="edgeStyle=orthogonalEdgeStyle;rounded=0;orthogonalLoop=1;jettySize=auto;html=1;exitX=0;exitY=0.75;exitDx=0;exitDy=0;entryX=0.5;entryY=0;entryDx=0;entryDy=0;" edge="1" parent="1" source="-n1pDU2zMvlfpEpFHyzS-3" target="-n1pDU2zMvlfpEpFHyzS-6">
          <mxGeometry relative="1" as="geometry" />
        </mxCell>
        <mxCell id="-n1pDU2zMvlfpEpFHyzS-20" style="edgeStyle=orthogonalEdgeStyle;rounded=0;orthogonalLoop=1;jettySize=auto;html=1;exitX=1;exitY=0.75;exitDx=0;exitDy=0;entryX=0.5;entryY=0;entryDx=0;entryDy=0;" edge="1" parent="1" source="-n1pDU2zMvlfpEpFHyzS-3" target="-n1pDU2zMvlfpEpFHyzS-9">
          <mxGeometry relative="1" as="geometry" />
        </mxCell>
        <mxCell id="-n1pDU2zMvlfpEpFHyzS-3" value="Pets" style="rounded=0;whiteSpace=wrap;html=1;" vertex="1" parent="1">
          <mxGeometry x="160" y="240" width="120" height="60" as="geometry" />
        </mxCell>
        <mxCell id="-n1pDU2zMvlfpEpFHyzS-21" style="edgeStyle=orthogonalEdgeStyle;rounded=0;orthogonalLoop=1;jettySize=auto;html=1;exitX=0;exitY=0.75;exitDx=0;exitDy=0;entryX=0.5;entryY=0;entryDx=0;entryDy=0;" edge="1" parent="1" source="-n1pDU2zMvlfpEpFHyzS-4" target="-n1pDU2zMvlfpEpFHyzS-10">
          <mxGeometry relative="1" as="geometry" />
        </mxCell>
        <mxCell id="-n1pDU2zMvlfpEpFHyzS-22" style="edgeStyle=orthogonalEdgeStyle;rounded=0;orthogonalLoop=1;jettySize=auto;html=1;exitX=0.5;exitY=1;exitDx=0;exitDy=0;entryX=0.25;entryY=0;entryDx=0;entryDy=0;" edge="1" parent="1" source="-n1pDU2zMvlfpEpFHyzS-4" target="-n1pDU2zMvlfpEpFHyzS-13">
          <mxGeometry relative="1" as="geometry" />
        </mxCell>
        <mxCell id="-n1pDU2zMvlfpEpFHyzS-23" style="edgeStyle=orthogonalEdgeStyle;rounded=0;orthogonalLoop=1;jettySize=auto;html=1;exitX=1;exitY=0.75;exitDx=0;exitDy=0;entryX=0.5;entryY=0;entryDx=0;entryDy=0;" edge="1" parent="1" source="-n1pDU2zMvlfpEpFHyzS-4" target="-n1pDU2zMvlfpEpFHyzS-15">
          <mxGeometry relative="1" as="geometry" />
        </mxCell>
        <mxCell id="-n1pDU2zMvlfpEpFHyzS-4" value="PackAnimal" style="rounded=0;whiteSpace=wrap;html=1;" vertex="1" parent="1">
          <mxGeometry x="480" y="240" width="120" height="60" as="geometry" />
        </mxCell>
        <mxCell id="-n1pDU2zMvlfpEpFHyzS-6" value="Dog" style="rounded=0;whiteSpace=wrap;html=1;" vertex="1" parent="1">
          <mxGeometry x="40" y="340" width="80" height="100" as="geometry" />
        </mxCell>
        <mxCell id="-n1pDU2zMvlfpEpFHyzS-8" value="Cat" style="rounded=0;whiteSpace=wrap;html=1;" vertex="1" parent="1">
          <mxGeometry x="160" y="340" width="80" height="100" as="geometry" />
        </mxCell>
        <mxCell id="-n1pDU2zMvlfpEpFHyzS-9" value="Hamster" style="rounded=0;whiteSpace=wrap;html=1;" vertex="1" parent="1">
          <mxGeometry x="280" y="340" width="80" height="100" as="geometry" />
        </mxCell>
        <mxCell id="-n1pDU2zMvlfpEpFHyzS-10" value="Horse" style="rounded=0;whiteSpace=wrap;html=1;" vertex="1" parent="1">
          <mxGeometry x="400" y="340" width="80" height="100" as="geometry" />
        </mxCell>
        <mxCell id="-n1pDU2zMvlfpEpFHyzS-13" value="Camel" style="rounded=0;whiteSpace=wrap;html=1;" vertex="1" parent="1">
          <mxGeometry x="520" y="340" width="80" height="100" as="geometry" />
        </mxCell>
        <mxCell id="-n1pDU2zMvlfpEpFHyzS-15" value="Donkey" style="rounded=0;whiteSpace=wrap;html=1;" vertex="1" parent="1">
          <mxGeometry x="640" y="340" width="80" height="100" as="geometry" />
        </mxCell>
        <mxCell id="-n1pDU2zMvlfpEpFHyzS-16" style="edgeStyle=orthogonalEdgeStyle;rounded=0;orthogonalLoop=1;jettySize=auto;html=1;exitX=0;exitY=0.75;exitDx=0;exitDy=0;entryX=0.667;entryY=0;entryDx=0;entryDy=0;entryPerimeter=0;" edge="1" parent="1" source="-n1pDU2zMvlfpEpFHyzS-2" target="-n1pDU2zMvlfpEpFHyzS-3">
          <mxGeometry relative="1" as="geometry" />
        </mxCell>
        <mxCell id="-n1pDU2zMvlfpEpFHyzS-19" style="edgeStyle=orthogonalEdgeStyle;rounded=0;orthogonalLoop=1;jettySize=auto;html=1;exitX=0.25;exitY=1;exitDx=0;exitDy=0;entryX=0.38;entryY=0.014;entryDx=0;entryDy=0;entryPerimeter=0;" edge="1" parent="1" source="-n1pDU2zMvlfpEpFHyzS-3" target="-n1pDU2zMvlfpEpFHyzS-8">
          <mxGeometry relative="1" as="geometry" />
        </mxCell>
      </root>
    </mxGraphModel>
  </diagram>
</mxfile>
